<?xml version="1.0" encoding="UTF-8" standalone="no"?>
<svg
   xmlns:dc="http://purl.org/dc/elements/1.1/"
   xmlns:cc="http://creativecommons.org/ns#"
   xmlns:rdf="http://www.w3.org/1999/02/22-rdf-syntax-ns#"
   xmlns:svg="http://www.w3.org/2000/svg"
   xmlns="http://www.w3.org/2000/svg"
   xmlns:sodipodi="http://sodipodi.sourceforge.net/DTD/sodipodi-0.dtd"
   xmlns:inkscape="http://www.inkscape.org/namespaces/inkscape"
   enable-background="new 0 0 64 96"
   height="58"
   viewBox="0 0 100 58.000004"
   width="100"
   version="1.1"
   id="svg58"
   sodipodi:docname="circus.svg"
   inkscape:version="1.0 (4035a4fb49, 2020-05-01)">
  <metadata
     id="metadata64">
    <rdf:RDF>
      <cc:Work
         rdf:about="">
        <dc:format>image/svg+xml</dc:format>
        <dc:type
           rdf:resource="http://purl.org/dc/dcmitype/StillImage" />
        <dc:title></dc:title>
      </cc:Work>
    </rdf:RDF>
  </metadata>
  <defs
     id="defs62" />
  <sodipodi:namedview
     units="px"
     inkscape:document-rotation="0"
     pagecolor="#ffffff"
     bordercolor="#666666"
     borderopacity="1"
     objecttolerance="10"
     gridtolerance="10"
     guidetolerance="10"
     inkscape:pageopacity="0"
     inkscape:pageshadow="2"
     inkscape:window-width="1920"
     inkscape:window-height="1025"
     id="namedview60"
     showgrid="false"
     fit-margin-top="0"
     fit-margin-left="0"
     fit-margin-right="0"
     fit-margin-bottom="0"
     inkscape:zoom="8.9375002"
     inkscape:cx="63.425257"
     inkscape:cy="31.028875"
     inkscape:window-x="0"
     inkscape:window-y="28"
     inkscape:window-maximized="1"
     inkscape:current-layer="svg58" />
  <g
     id="g2920"
     transform="matrix(0.99986411,0,0,1.0086057,-49.21255,-260.41354)">
    <g
       transform="translate(0.76334)"
       id="g2914">
      <path
         id="path546-3"
         d="m 98.47332,308.19681 v 7.5 l -50.000001,-25 v -7.5 z"
         fill="#bb8d5d" />
      <path
         id="path548-6"
         d="m 98.47332,315.69681 v -7.5 l 50,-25 v 7.5 z"
         fill="#9e7758" />
    </g>
    <path
       id="path208"
       d="m 49.23666,283.19681 50,-25 50,25 -50,25 z"
       fill="#8bb54a" />
  </g>
  <g
     id="g67"
     transform="matrix(0.93968826,0,0,0.76522327,3.1892981,3.4149787)">
    <path
       id="path2"
       fill="#cc291f"
       d="m 49.931729,14.571498 c -11.49327,0 -20.778794,3.187617 -20.778794,7.083594 v 14.16719 c 0,3.895976 9.285524,7.083594 20.778794,7.083594 11.493271,0 20.778795,-3.187618 20.778795,-7.083594 v -14.16719 c 0,-3.895977 -9.285524,-7.083594 -20.778795,-7.083594 z"
       style="stroke-width:0.53617" />
    <path
       id="path4"
       fill="#e5e5e5"
       d="m 47.33438,28.694414 c -1.818144,-0.08854 -3.571356,-0.221362 -5.194699,-0.442724 v 14.167189 c 1.623343,0.221362 3.376555,0.398452 5.194699,0.442724 z"
       style="stroke-width:0.53617" />
    <path
       id="path6"
       fill="#e5e5e5"
       d="m 67.463838,25.462524 c -1.233741,0.664087 -2.792151,1.239629 -4.545362,1.726627 V 41.35634 c 1.753211,-0.486997 3.311621,-1.062539 4.545362,-1.726626 z"
       style="stroke-width:0.53617" />
    <path
       id="path8"
       fill="#e5e5e5"
       d="m 32.399621,25.462524 c 1.233741,0.664087 2.79215,1.239629 4.545362,1.726627 V 41.35634 c -1.753212,-0.486997 -3.311621,-1.062539 -4.545362,-1.726626 z"
       style="stroke-width:0.53617" />
    <path
       id="path10"
       fill="#e5e5e5"
       d="m 57.723778,28.207416 c -1.623344,0.221363 -3.376554,0.398454 -5.1947,0.442726 v 14.167189 c 1.818146,-0.08855 3.571356,-0.221362 5.1947,-0.442724 z"
       style="stroke-width:0.53617" />
    <path
       id="path12"
       fill="#ffcc00"
       d="m 62.788608,41.400612 c -0.974006,-0.973994 -4.090824,-6.463779 -5.06483,-10.182667 -1.03894,4.294429 -5.1947,11.599386 -5.1947,11.599386 3.831091,-0.132817 7.337513,-0.664086 10.25953,-1.416719 z"
       style="stroke-width:0.53617" />
    <path
       id="path14"
       fill="#2d3134"
       d="m 62.788608,41.400612 c -1.818144,0 -4.350559,-3.187617 -5.06483,-8.721676 -0.389603,9.164401 -5.129766,10.22694 -5.1947,10.182667 3.831091,-0.177089 7.337513,-0.708358 10.25953,-1.460991 z"
       style="stroke-width:0.53617" />
    <path
       id="path16"
       opacity="0.2"
       d="m 49.931729,28.738686 c -11.49327,0 -20.778794,-3.187616 -20.778794,-7.083594 v 14.16719 c 0,3.895976 9.285524,7.083594 20.778794,7.083594 11.493271,0 20.778795,-3.187618 20.778795,-7.083594 v -14.16719 c 0,3.895978 -9.285524,7.083594 -20.778795,7.083594 z"
       style="stroke-width:0.53617" />
    <path
       id="path18"
       opacity="0.2"
       d="m 67.463838,25.905249 c -1.233741,0.664087 -2.792151,1.239629 -4.545362,1.726626 -1.55841,0.442724 -3.31162,0.796904 -5.194698,1.018267 -1.623344,0.221362 -3.376554,0.398452 -5.1947,0.442724 -0.844138,0.08854 -1.688276,0.08854 -2.597349,0.08854 -0.909072,0 -1.75321,0 -2.597349,-0.04428 -1.818144,-0.08854 -3.571356,-0.22136 -5.194699,-0.442722 -1.883078,-0.265632 -3.636289,-0.619811 -5.194698,-1.018263 -1.753212,-0.486997 -3.311621,-1.06254 -4.545362,-1.726626 -2.077879,-1.106812 -3.246686,-2.390714 -3.246686,-3.807433 v 2.656349 c 0,0.619814 0.259735,1.195356 0.649337,1.770899 0.649337,0.841176 2.597349,0.531269 2.597349,-0.442725 v 1.151084 c 0,0.88545 0.649337,1.682354 1.753211,2.125079 0.06494,0 0.06494,0.04428 0.129867,0.04428 1.168808,0.442724 2.662284,-0.132818 2.662284,-1.06254 v 0.708359 c 0,0.752633 0.714271,1.460992 1.818144,1.682354 h 0.06494 c 1.623343,0.354178 3.31162,-0.486999 3.31162,-1.682355 v 0.796904 c 0,0.88545 0.974006,1.638081 2.207747,1.726626 h 0.06494 c 1.55841,0.132817 2.922018,-0.664087 2.922018,-1.726626 v 0.17709 c 0,0.973994 1.168807,1.770898 2.597349,1.770898 1.428542,0 0,0 0,0 1.428542,0 2.597349,-0.796904 2.597349,-1.770898 v -0.221364 c 0,1.062539 1.363609,1.903716 2.922019,1.726627 h 0.06494 c 1.298675,-0.132818 2.207748,-0.841177 2.207748,-1.726627 v -0.796907 c 0,1.195357 1.688277,2.036533 3.31162,1.682354 h 0.06494 c 1.103874,-0.221363 1.818145,-0.929722 1.818145,-1.682354 v -0.70836 c 0,0.929722 1.493475,1.549536 2.662283,1.06254 0.06493,0 0.06493,-0.04428 0.129867,-0.04428 1.103874,-0.442721 1.753212,-1.239626 1.753212,-2.125076 v -1.151075 c 0,0.973994 1.948011,1.283902 2.597349,0.442725 0.454536,-0.575542 0.649337,-1.151084 0.649337,-1.770899 v -2.656348 c 0,1.416719 -1.168807,2.70062 -3.246686,3.807432 z"
       style="stroke-width:0.53617" />
    <path
       id="path20"
       fill="#cc291f"
       d="M 68.243042,18.334658 49.931729,7.4879034 31.620416,18.334658 c -1.558409,0.973994 -2.467481,2.125077 -2.467481,3.320434 0,3.895978 9.285524,7.083594 20.778794,7.083594 11.493271,0 20.778795,-3.187616 20.778795,-7.083594 0,-1.195357 -0.909072,-2.34644 -2.467482,-3.320434 z"
       style="stroke-width:0.53617" />
    <path
       id="path22"
       fill="#e5e5e5"
       d="m 67.463838,25.462524 v 0.17709 c 0,0.973994 1.948011,1.283901 2.597349,0.442724 0.454536,-0.575541 0.649337,-1.151083 0.649337,-1.770898 v -2.656348 c 0,1.416719 -1.168807,2.70062 -3.246686,3.807432 z"
       style="stroke-width:0.53617" />
    <path
       id="path24"
       fill="#e5e5e5"
       d="m 57.723778,28.207416 v 0.398454 c 0,1.195356 1.688277,2.036532 3.31162,1.682353 h 0.06494 c 1.103874,-0.221362 1.818145,-0.929722 1.818145,-1.682353 v -1.416719 c -1.55841,0.442724 -3.31162,0.752631 -5.194698,1.018265 z"
       style="stroke-width:0.53617" />
    <path
       id="path26"
       fill="#e5e5e5"
       d="m 49.931729,28.738686 c -0.909072,0 -1.75321,0 -2.597349,-0.04428 v 0.929721 c 0,0.973995 1.168807,1.770899 2.597349,1.770899 1.428542,0 0,0 0,0 1.428542,0 2.597349,-0.796904 2.597349,-1.770899 v -0.929721 c -0.844138,0.04428 -1.688276,0.04428 -2.597349,0.04428 z"
       style="stroke-width:0.53617" />
    <path
       id="path28"
       fill="#cc291f"
       d="m 42.139681,28.207416 v 1.195358 c 0,0.885449 0.974006,1.638081 2.207747,1.726626 h 0.06494 c 1.55841,0.132817 2.922018,-0.664087 2.922018,-1.726626 v -0.70836 C 45.516242,28.605874 43.76303,28.42878 42.139687,28.207416 Z"
       style="stroke-width:0.53617" />
    <path
       id="path30"
       fill="#cc291f"
       d="m 62.918476,27.189151 v 0.708358 c 0,0.929722 1.493476,1.549537 2.662284,1.06254 0.06493,0 0.06493,-0.04428 0.129867,-0.04428 1.103873,-0.442723 1.753211,-1.239627 1.753211,-2.125076 v -1.328175 c -1.233741,0.664087 -2.792151,1.23963 -4.545362,1.726626 z"
       style="stroke-width:0.53617" />
    <path
       id="path32"
       fill="#e5e5e5"
       d="m 32.399621,25.462524 v 0.17709 c 0,0.973994 -1.948012,1.283901 -2.597349,0.442724 -0.454536,-0.575541 -0.649337,-1.151083 -0.649337,-1.770898 v -2.656348 c 0,1.416719 1.168807,2.70062 3.246686,3.807432 z"
       style="stroke-width:0.53617" />
    <path
       id="path34"
       fill="#e5e5e5"
       d="m 42.139681,28.207416 v 0.398454 c 0,1.195356 -1.688277,2.036532 -3.31162,1.682353 h -0.06494 C 37.659248,30.066861 36.944977,29.358501 36.944977,28.60587 v -1.416719 c 1.558409,0.442724 3.31162,0.752631 5.194698,1.018265 z"
       style="stroke-width:0.53617" />
    <path
       id="path36"
       fill="#cc291f"
       d="m 36.944983,27.189151 v 0.708358 c 0,0.929722 -1.493476,1.549537 -2.662284,1.06254 -0.06494,0 -0.06494,-0.04428 -0.129867,-0.04428 -1.103874,-0.442724 -1.753211,-1.239628 -1.753211,-2.125078 v -1.328174 c 1.233741,0.664087 2.79215,1.239629 4.545362,1.726627 z"
       style="stroke-width:0.53617" />
    <path
       id="path38"
       fill="#cc291f"
       d="m 52.529078,28.694414 v 0.70836 c 0,1.062539 1.363609,1.903715 2.922019,1.726626 h 0.06494 c 1.298674,-0.132818 2.207747,-0.841177 2.207747,-1.726626 v -1.195358 c -1.623344,0.221363 -3.376555,0.398454 -5.1947,0.486998 z"
       style="stroke-width:0.53617" />
    <path
       id="path40"
       opacity="0.1"
       d="m 67.463838,25.462524 c -1.233741,0.664087 -2.792151,1.239629 -4.545362,1.726627 -1.55841,0.442724 -3.31162,0.796903 -5.194698,1.018265 -1.623344,0.221363 -3.376554,0.398454 -5.1947,0.442726 -0.844138,0.08854 -1.688276,0.08854 -2.597349,0.08854 -0.909072,0 -1.75321,0 -2.597349,-0.04428 -1.818144,-0.08854 -3.571356,-0.22136 -5.194699,-0.442723 -1.883078,-0.265634 -3.636289,-0.619814 -5.194698,-1.018266 -1.753212,-0.486997 -3.311621,-1.062539 -4.545362,-1.726626 -2.077879,-1.106812 -3.246686,-2.390713 -3.246686,-3.807432 v 2.656348 c 0,0.619814 0.259735,1.195357 0.649337,1.770899 0.649337,0.841177 2.597349,0.531269 2.597349,-0.442725 v 1.151084 c 0,0.88545 0.649337,1.682354 1.753211,2.125079 0.06494,0 0.06494,0.04428 0.129867,0.04428 1.168808,0.442724 2.662284,-0.132818 2.662284,-1.06254 v 0.708359 c 0,0.752633 0.714271,1.460992 1.818144,1.682355 h 0.06494 c 1.623343,0.354177 3.31162,-0.486999 3.31162,-1.682356 v 0.796905 c 0,0.88545 0.974006,1.638081 2.207747,1.726627 h 0.06494 c 1.55841,0.132817 2.922018,-0.664089 2.922018,-1.726627 v 0.177089 c 0,0.973994 1.168807,1.7709 2.597349,1.7709 1.428542,0 0,0 0,0 1.428542,0 2.597349,-0.796906 2.597349,-1.7709 V 29.40277 c 0,1.062539 1.363609,1.903717 2.922019,1.726627 h 0.06494 c 1.298675,-0.132818 2.207748,-0.841177 2.207748,-1.726627 v -0.796903 c 0,1.195356 1.688277,2.036532 3.31162,1.682353 h 0.06494 c 1.103874,-0.221364 1.818145,-0.929724 1.818145,-1.682355 v -0.708361 c 0,0.929722 1.493475,1.549537 2.662283,1.06254 0.06493,0 0.06493,-0.04428 0.129867,-0.04428 1.103874,-0.442723 1.753212,-1.239627 1.753212,-2.125076 v -1.151085 c 0,0.973995 1.948011,1.283901 2.597349,0.442725 0.454536,-0.575542 0.649337,-1.151084 0.649337,-1.770899 v -2.656348 c 0,1.41672 -1.168807,2.700621 -3.246686,3.807432 z"
       style="stroke-width:0.53617" />
    <g
       id="g52"
       fill="#e5e5e5"
       transform="matrix(0.64933734,0,0,0.44272467,29.152935,0.40430858)">
      <path
         id="path42"
         d="m 59,56.6 c 3.2,-2.5 5,-5.4 5,-8.6 L 32,16 Z" />
      <path
         id="path44"
         d="m 44,62.8 c 2.9,-0.6 5.6,-1.4 8,-2.3 L 32,16 Z" />
      <path
         id="path46"
         d="m 12,60.5 c 2.4,1 5.1,1.8 8,2.3 L 32,16 Z" />
      <path
         id="path48"
         d="M 5,56.6 32,16 0,48 c 0,3.2 1.8,6.1 5,8.6 z" />
      <path
         id="path50"
         d="m 28,63.9 c 1.3,0.1 2.6,0.1 4,0.1 1.4,0 2.7,0 4,-0.1 L 32,16 Z" />
    </g>
    <path
       id="path54"
       fill="#825012"
       d="m 49.931729,8.373353 c -0.389602,0 -0.649337,-0.1770902 -0.649337,-0.4427248 V 0.84703338 c 0,-0.2656345 0.259735,-0.4427248 0.649337,-0.4427248 0.389603,0 0.649338,0.1770903 0.649338,0.4427248 V 7.9306282 c 0,0.2656346 -0.259735,0.4427248 -0.649338,0.4427248 z"
       style="stroke-width:0.53617" />
    <path
       id="path56"
       fill="#ffcc00"
       d="M 49.931729,1.2897582 V 4.8315556 L 60.321127,8.373353 57.723778,5.7170046 60.321127,4.8315556 Z"
       style="stroke-width:0.53617" />
  </g>
</svg>
